<?xml version="1.0" standalone="no"?>
<!DOCTYPE svg PUBLIC "-//W3C//DTD SVG 20010904//EN"
 "http://www.w3.org/TR/2001/REC-SVG-20010904/DTD/svg10.dtd">
<svg version="1.0" xmlns="http://www.w3.org/2000/svg"
 width="365.000000pt" height="230.000000pt" viewBox="0 0 365.000000 230.000000"
 preserveAspectRatio="xMidYMid meet">
<metadata>
Created by potrace 1.16, written by Peter Selinger 2001-2019
</metadata>
<g transform="translate(0.000000,230.000000) scale(0.100000,-0.100000)"
fill="#000000" stroke="none">
<path d="M56 2291 c-3 -4 -17 -6 -31 -3 -25 4 -25 4 -25 -66 l0 -69 31 -7 c17
-3 44 -6 60 -6 l29 0 1 -442 c0 -244 0 -463 -1 -488 l-2 -45 22 20 c15 13 21
30 20 55 -1 19 -1 170 1 335 2 165 5 266 6 225 3 -52 9 -81 21 -95 16 -19 16
-19 0 -6 -17 12 -18 10 -18 -26 0 -29 7 -46 25 -63 l25 -23 24 22 c24 22 24
26 25 194 1 148 3 173 18 187 14 13 15 13 6 0 -6 -8 -12 -51 -12 -94 l0 -79
24 23 c18 17 25 34 25 62 0 29 -3 37 -12 32 -10 -6 -10 -5 -1 7 8 10 12 71 12
187 l1 172 -80 0 -80 0 0 -29 c0 -20 9 -37 31 -55 17 -14 27 -26 23 -26 -4 0
-18 10 -31 22 l-24 22 3 -86 c2 -47 0 -84 -4 -81 -5 2 -8 56 -8 119 0 114 0
114 -24 114 -13 0 -27 -6 -29 -12 -4 -10 -6 -10 -6 0 -1 14 -37 17 -45 3z"/>
<path d="M341 2128 c0 -147 3 -176 17 -193 16 -19 16 -19 0 -6 -17 12 -18 10
-18 -26 0 -29 7 -46 25 -63 l26 -24 -3 86 c-2 47 0 84 5 81 4 -2 7 -97 7 -210
0 -114 -3 -204 -6 -200 -3 3 -6 57 -6 120 0 108 -1 117 -24 138 l-23 22 0 -79
c0 -59 5 -84 17 -99 16 -19 16 -19 0 -6 -17 12 -18 9 -18 -44 0 -32 -2 -56 -5
-53 -4 3 -6 67 -6 143 l-1 137 -24 -23 c-25 -24 -35 -89 -13 -89 8 0 8 -4 1
-13 -6 -6 -11 -50 -11 -96 0 -46 -3 -86 -6 -89 -3 -3 -5 14 -5 38 l0 43 -25
-23 -25 -23 -25 23 -25 23 0 -79 c0 -50 5 -85 13 -93 9 -11 9 -13 0 -7 -10 6
-13 -12 -13 -75 0 -76 2 -85 28 -113 l27 -31 -28 24 -27 24 0 -79 c0 -50 5
-85 13 -93 8 -10 8 -12 0 -7 -8 5 -13 -9 -16 -46 l-3 -53 -2 54 -2 54 -25 -23
c-29 -27 -36 -90 -10 -90 11 0 15 -11 15 -41 0 -46 13 -76 44 -101 20 -16 112
-18 1464 -18 1538 0 1488 2 1506 -45 3 -9 6 -172 6 -361 0 -235 4 -352 11
-367 22 -43 50 -57 117 -57 57 0 67 3 93 29 18 18 29 40 29 57 0 18 14 42 45
75 l45 48 0 331 0 330 -25 0 c-24 0 -25 -2 -25 -74 0 -59 -4 -79 -20 -97 l-19
-24 -1 153 0 152 45 0 c33 0 45 4 45 15 0 9 -9 15 -25 15 -25 0 -25 1 -25 90
0 56 4 90 10 90 17 0 60 -47 60 -65 0 -8 7 -15 15 -15 12 0 15 17 15 90 0 98
-11 114 -42 60 -10 -18 -25 -30 -38 -30 -18 0 -20 6 -20 80 l0 80 44 0 c80 0
126 -31 126 -85 0 -8 7 -15 15 -15 12 0 15 14 15 65 l0 65 -165 0 c-140 0
-165 -2 -165 -15 0 -9 9 -15 25 -15 l25 0 0 -190 0 -190 -25 0 c-16 0 -25 -6
-25 -15 0 -9 9 -15 25 -15 l25 0 0 -152 c0 -150 0 -151 -20 -133 -17 15 -20
31 -20 97 0 77 0 78 -25 78 l-25 0 0 -333 0 -333 44 -43 c40 -39 43 -46 35
-71 -18 -49 -79 -64 -123 -29 l-26 20 0 345 c0 370 -3 394 -51 428 -21 15
-149 16 -1470 16 l-1446 0 -27 21 c-19 15 -26 30 -26 55 l0 34 225 0 224 0 4
88 3 87 2 -89 2 -89 38 7 c20 3 56 6 80 6 36 0 42 3 42 22 0 12 -8 31 -17 42
-17 20 -17 20 0 7 16 -12 17 -10 17 27 0 31 -6 45 -25 60 -14 11 -25 23 -25
28 0 4 11 -3 25 -16 l25 -23 0 78 c0 60 -4 83 -17 99 -17 20 -17 20 0 7 16
-12 17 -9 17 44 0 32 2 56 5 53 3 -3 6 -49 6 -103 l0 -97 25 23 c17 16 24 33
24 62 0 36 -1 38 -17 26 -17 -13 -17 -13 -1 6 9 11 18 36 21 55 2 19 4 -59 4
-175 0 -115 -2 -193 -4 -172 -4 34 -6 37 -21 25 -16 -12 -16 -11 0 7 12 15 17
40 17 99 l0 79 -23 -23 c-23 -20 -24 -29 -24 -132 l0 -110 36 7 c21 4 38 8 40
10 8 8 12 280 5 345 l-8 75 -73 3 -73 3 -15 -36 c-8 -20 -25 -72 -37 -116
l-22 -79 -122 0 -122 0 -3 108 c-2 59 -2 270 0 470 l2 362 28 0 c15 0 43 3 63
6 l36 6 2 68 2 67 -47 7 c-26 3 -75 6 -111 6 l-63 0 1 -172z"/>
<path d="M930 1420 c0 -15 7 -20 25 -20 l25 0 0 -155 c0 -221 19 -257 138
-263 54 -2 73 1 100 18 53 33 62 68 62 245 l0 155 25 0 c18 0 25 5 25 20 0 18
-7 20 -70 20 -63 0 -70 -2 -70 -20 0 -15 7 -20 25 -20 l25 0 0 -147 c0 -177
-11 -212 -73 -227 -31 -8 -42 -6 -65 11 l-27 20 -3 172 c-2 166 -2 171 18 171
13 0 20 7 20 20 0 19 -7 20 -90 20 -83 0 -90 -1 -90 -20z"/>
<path d="M1421 1428 c-43 -23 -66 -65 -65 -119 1 -61 24 -89 103 -120 138 -54
152 -68 126 -119 -32 -62 -107 -70 -161 -16 -19 19 -34 41 -34 50 0 9 -8 16
-20 16 -18 0 -20 -7 -20 -70 0 -71 10 -86 38 -58 9 9 18 9 37 0 33 -15 110
-15 138 -1 62 32 95 99 82 165 -10 57 -48 91 -128 115 -81 24 -107 42 -107 74
0 74 141 70 165 -5 4 -11 15 -20 26 -20 16 0 19 7 19 55 l0 55 -32 0 c-18 0
-58 2 -88 5 -35 4 -64 1 -79 -7z"/>
<path d="M2578 1418 c-76 -47 -116 -141 -105 -240 13 -108 77 -186 161 -195
94 -11 156 20 199 101 17 33 22 58 22 126 0 75 -3 91 -28 132 -39 67 -78 92
-152 96 -49 2 -67 -1 -97 -20z m144 -35 c53 -46 61 -255 14 -326 -17 -25 -30
-33 -60 -35 -84 -7 -111 46 -104 211 3 88 7 111 24 134 33 44 87 50 126 16z"/>
<path d="M2890 1421 c0 -16 6 -21 25 -21 l25 0 0 -185 0 -185 -25 0 c-18 0
-25 -5 -25 -20 0 -19 7 -20 90 -20 83 0 90 1 90 20 0 15 -7 20 -25 20 -25 0
-25 1 -25 90 l0 90 29 0 c50 0 71 -27 81 -104 10 -84 33 -120 80 -124 50 -5
80 5 80 28 0 17 -5 19 -24 14 -31 -7 -46 18 -46 78 0 50 -28 103 -61 113 -19
6 -18 9 17 25 83 36 85 138 5 176 -26 13 -71 19 -163 22 -125 5 -128 4 -128
-17z m243 -40 c6 -6 12 -30 12 -52 0 -52 -30 -79 -86 -79 l-39 0 0 76 0 77 51
-5 c27 -3 55 -10 62 -17z"/>
<path d="M1676 1374 c-10 -78 -8 -94 13 -94 13 0 20 9 25 30 7 37 48 80 76 80
19 0 20 -5 20 -190 l0 -190 -25 0 c-16 0 -25 -6 -25 -15 0 -12 17 -15 95 -15
78 0 95 3 95 15 0 10 -10 15 -30 15 l-30 0 0 190 c0 206 -1 204 54 179 22 -10
32 -27 50 -81 3 -10 12 -18 21 -18 12 0 15 14 15 70 l0 70 -174 0 -173 0 -7
-46z"/>
<path d="M2060 1405 c0 -9 9 -15 25 -15 l25 0 0 -190 0 -190 -25 0 c-16 0 -25
-6 -25 -15 0 -24 221 -21 277 4 111 51 148 258 62 355 -49 56 -82 66 -218 66
-101 0 -121 -2 -121 -15z m230 -33 c50 -25 60 -52 60 -172 0 -87 -3 -111 -20
-137 -19 -32 -27 -36 -102 -48 l-38 -6 0 191 0 190 33 0 c17 0 48 -8 67 -18z"/>
<path d="M984 635 c-18 -18 -24 -35 -24 -67 0 -72 45 -111 103 -89 22 9 24 7
20 -10 -8 -30 -39 -42 -74 -30 -24 8 -31 7 -36 -5 -8 -21 14 -34 60 -34 78 0
97 33 97 170 l0 87 -61 1 c-52 1 -65 -3 -85 -23z"/>
<path d="M1181 651 c-8 -5 -11 -16 -8 -25 5 -13 11 -14 31 -4 20 8 29 8 41 -2
23 -19 18 -30 -13 -30 -43 0 -72 -26 -72 -64 0 -45 16 -56 83 -54 l57 2 0 76
c0 62 -4 80 -18 93 -20 18 -78 22 -101 8z"/>
<path d="M1735 637 c-22 -18 -27 -31 -27 -71 -1 -42 3 -53 26 -73 37 -31 89
-31 121 2 20 19 25 34 25 74 0 42 -4 53 -26 70 -35 28 -86 27 -119 -2z"/>
<path d="M1910 565 c0 -94 0 -95 25 -95 23 0 24 3 27 73 3 67 5 72 27 75 32 5
41 -12 41 -85 0 -56 2 -63 20 -63 18 0 20 7 20 78 0 64 -4 82 -18 95 -22 20
-73 22 -90 5 -9 -9 -12 -9 -12 0 0 7 -9 12 -20 12 -19 0 -20 -7 -20 -95z"/>
<path d="M2139 647 c-39 -30 -50 -87 -24 -136 16 -33 33 -41 81 -41 52 0 84
36 84 95 0 60 -32 95 -87 95 -21 0 -45 -6 -54 -13z"/>
<path d="M2310 564 c0 -87 1 -94 20 -94 18 0 20 7 20 56 0 64 13 94 39 94 25
0 31 -19 31 -91 0 -52 2 -59 20 -59 18 0 20 7 20 63 0 65 11 87 41 87 23 0 29
-20 29 -91 0 -52 2 -59 20 -59 18 0 20 7 20 73 0 88 -16 117 -64 117 -17 0
-37 -5 -44 -12 -8 -8 -15 -8 -24 0 -7 6 -39 10 -71 10 l-57 -1 0 -93z"/>
<path d="M2862 652 c-7 -5 -10 -16 -6 -25 4 -12 11 -14 30 -7 28 11 50 5 58
-16 4 -10 -2 -14 -20 -14 -48 0 -84 -28 -84 -66 0 -36 29 -53 93 -52 l59 1 -4
79 c-3 65 -7 82 -23 94 -21 15 -82 19 -103 6z"/>
<path d="M1880 267 l0 -133 64 -2 c59 -2 66 0 85 24 29 36 28 102 -1 139 -19
24 -26 27 -65 22 l-43 -5 0 44 c0 37 -3 44 -20 44 -19 0 -20 -7 -20 -133z"/>
<path d="M2223 305 c-26 -18 -43 -71 -36 -108 9 -45 44 -69 99 -65 36 2 49 7
49 18 0 11 -11 15 -36 15 -35 0 -69 18 -69 36 0 5 28 9 61 9 l62 0 -6 38 c-11
64 -73 92 -124 57z"/>
<path d="M2360 308 c0 -7 11 -49 25 -95 21 -66 29 -83 45 -83 14 0 23 14 36
55 10 30 21 52 24 48 4 -5 13 -30 20 -56 11 -39 17 -47 33 -45 16 2 27 22 49
88 33 100 33 100 8 100 -15 0 -23 -12 -35 -52 -8 -28 -15 -59 -16 -67 0 -9
-10 14 -21 52 -28 90 -50 92 -76 5 -20 -65 -20 -66 -42 20 -8 31 -16 42 -30
42 -11 0 -20 -5 -20 -12z"/>
<path d="M2655 295 c-20 -19 -25 -34 -25 -73 0 -68 28 -94 96 -90 36 2 49 7
49 18 0 11 -11 15 -36 15 -35 0 -69 18 -69 36 0 5 27 9 60 9 59 0 60 0 60 29
0 73 -84 108 -135 56z"/>
<path d="M2920 315 c0 -3 16 -44 35 -91 l34 -86 -29 -28 c-19 -18 -28 -34 -24
-44 17 -44 71 16 117 132 42 105 45 122 18 122 -15 0 -24 -13 -37 -55 -10 -30
-21 -55 -24 -55 -4 0 -15 25 -25 55 -16 45 -23 55 -42 55 -13 0 -23 -2 -23 -5z"/>
</g>
</svg>
